<?xml version="1.0" standalone="no"?>
<!DOCTYPE svg PUBLIC "-//W3C//DTD SVG 20010904//EN"
 "http://www.w3.org/TR/2001/REC-SVG-20010904/DTD/svg10.dtd">
<svg version="1.0" xmlns="http://www.w3.org/2000/svg"
 width="260.000000pt" height="260.000000pt" viewBox="0 0 260.000000 260.000000"
 preserveAspectRatio="xMidYMid meet">
<metadata>
Created by potrace 1.14, written by Peter Selinger 2001-2017
</metadata>
<g transform="translate(0.000000,260.000000) scale(0.100000,-0.100000)"
fill="#000000" stroke="none">
<path d="M1230 2272 l0 -179 -68 -12 c-381 -68 -661 -399 -662 -781 0 -103 23
-219 63 -318 74 -182 244 -351 422 -417 36 -14 67 -25 70 -25 5 0 35 104 35
122 0 7 -31 25 -68 41 -267 107 -427 421 -368 717 46 227 207 415 421 492 39
14 89 29 113 33 l42 7 0 -167 0 -166 68 3 67 3 3 413 2 412 -70 0 -70 0 0
-178z"/>
<path d="M1516 2006 c-9 -36 -16 -67 -16 -69 0 -2 27 -14 59 -26 182 -66 329
-240 377 -446 24 -105 16 -267 -18 -363 -83 -232 -266 -387 -515 -437 l-32 -6
-3 163 -3 163 -61 3 c-43 2 -64 -1 -73 -11 -8 -11 -11 -121 -9 -418 l3 -404
73 -3 72 -3 0 183 0 183 93 18 c169 32 345 140 459 281 145 180 208 436 159
653 -40 182 -97 289 -221 413 -70 71 -101 94 -180 133 -52 26 -107 49 -121 53
-25 5 -27 3 -43 -60z"/>
</g>
</svg>
